<svg width="124" height="46" viewBox="0 0 124 46" fill="none" xmlns="http://www.w3.org/2000/svg">
<path d="M0.701547 45L6.99041 0.902779H15.86L22.5497 45H16.2859L15.2336 37.1327H8.1179L7.1658 45H0.701547ZM8.76933 31.7458H14.532L11.5755 9.59695H11.4753L8.76933 31.7458ZM25.0192 45V0.902779H35.1415C36.8953 0.902779 38.3485 1.17004 39.5011 1.70455C40.6703 2.23906 41.589 3.03247 42.2572 4.08479C42.9253 5.13711 43.4014 6.43999 43.6853 7.99341C43.9693 9.53013 44.1113 11.3091 44.1113 13.3302V14.2572C44.1113 17.0968 43.8607 19.5188 43.3596 21.5232C42.8752 23.511 41.9983 25.0226 40.7288 26.0582C39.4593 27.0939 37.6721 27.6117 35.367 27.6117H31.734V45H25.0192ZM31.734 22.0745H34.039C35.0246 22.0745 35.7595 21.8239 36.2439 21.3228C36.7283 20.8217 37.0457 19.9949 37.196 18.8423C37.363 17.6731 37.4466 16.1197 37.4466 14.1821V13.3302C37.4299 10.9416 37.2211 9.1376 36.8202 7.91825C36.4193 6.68219 35.509 6.06416 34.0892 6.06416H31.734V22.0745ZM56.4023 45.5011C54.114 45.5011 52.2432 45.0167 50.79 44.0479C49.3535 43.0791 48.2928 41.6426 47.608 39.7384C46.9231 37.8342 46.5807 35.479 46.5807 32.6728V12.5034C46.5807 9.96442 46.9148 7.79297 47.5829 5.98899C48.251 4.18502 49.3117 2.79863 50.7649 1.82982C52.2181 0.861021 54.1223 0.376619 56.4775 0.376619C58.2481 0.376619 59.743 0.652227 60.9624 1.20344C62.1818 1.75466 63.1673 2.55643 63.9189 3.60875C64.6706 4.64436 65.2134 5.91383 65.5475 7.41714C65.8983 8.90375 66.0737 10.5992 66.0737 12.5034V32.6728C66.0737 35.479 65.7396 37.8342 65.0715 39.7384C64.42 41.6426 63.3844 43.0791 61.9646 44.0479C60.5448 45.0167 58.6907 45.5011 56.4023 45.5011ZM56.4023 39.6883C57.2375 39.6883 57.8639 39.4377 58.2815 38.9366C58.6991 38.4355 58.9747 37.6755 59.1083 36.6566C59.2586 35.621 59.3338 34.3181 59.3338 32.748V12.2027C59.3338 10.2818 59.1501 8.80353 58.7826 7.76791C58.4318 6.71559 57.6635 6.18943 56.4775 6.18943C55.2582 6.18943 54.4313 6.69889 53.997 7.7178C53.5628 8.72001 53.3456 10.2066 53.3456 12.1776V32.748C53.3456 34.3515 53.4124 35.6711 53.5461 36.7067C53.6964 37.7256 53.9887 38.4773 54.423 38.9617C54.874 39.4461 55.5338 39.6883 56.4023 39.6883ZM70.6478 45V0.902779H77.3626V39.2874H85.8563V45H70.6478ZM87.9499 45V0.902779H94.6647V39.2874H103.158V45H87.9499ZM114.021 45.5011C111.733 45.5011 109.862 45.0167 108.409 44.0479C106.973 43.0791 105.912 41.6426 105.227 39.7384C104.542 37.8342 104.2 35.479 104.2 32.6728V12.5034C104.2 9.96442 104.534 7.79297 105.202 5.98899C105.87 4.18502 106.931 2.79863 108.384 1.82982C109.837 0.861021 111.741 0.376619 114.097 0.376619C115.867 0.376619 117.362 0.652227 118.581 1.20344C119.801 1.75466 120.786 2.55643 121.538 3.60875C122.29 4.64436 122.832 5.91383 123.167 7.41714C123.517 8.90375 123.693 10.5992 123.693 12.5034V32.6728C123.693 35.479 123.359 37.8342 122.69 39.7384C122.039 41.6426 121.003 43.0791 119.584 44.0479C118.164 45.0167 116.31 45.5011 114.021 45.5011ZM114.021 39.6883C114.857 39.6883 115.483 39.4377 115.901 38.9366C116.318 38.4355 116.594 37.6755 116.727 36.6566C116.878 35.621 116.953 34.3181 116.953 32.748V12.2027C116.953 10.2818 116.769 8.80353 116.402 7.76791C116.051 6.71559 115.282 6.18943 114.097 6.18943C112.877 6.18943 112.05 6.69889 111.616 7.7178C111.182 8.72001 110.965 10.2066 110.965 12.1776V32.748C110.965 34.3515 111.031 35.6711 111.165 36.7067C111.315 37.7256 111.608 38.4773 112.042 38.9617C112.493 39.4461 113.153 39.6883 114.021 39.6883Z" fill="white"/>
</svg>
