<svg width="62" height="89" viewBox="0 0 62 89" fill="none" xmlns="http://www.w3.org/2000/svg">
<path d="M0 42.3074L5.96247 0.498852H14.3717L20.7142 42.3074H14.7755L13.7778 34.8484H7.03144L6.12876 42.3074H0ZM7.64907 29.7411H13.1127L10.3096 8.74179H10.2146L7.64907 29.7411Z" fill="white"/>
<path d="M23.0555 42.3074V0.498852H32.6525C34.3153 0.498852 35.6931 0.752238 36.7858 1.25901C37.8944 1.76578 38.7654 2.51802 39.3989 3.51572C40.0323 4.51343 40.4837 5.74868 40.7529 7.22148C41.0221 8.67845 41.1567 10.365 41.1567 12.2813V13.1602C41.1567 15.8524 40.9192 18.1487 40.4441 20.0491C39.9848 21.9337 39.1534 23.3669 37.9498 24.3487C36.7463 25.3306 35.0517 25.8215 32.8663 25.8215H29.4218V42.3074H23.0555ZM29.4218 20.5717H31.6073C32.5416 20.5717 33.2385 20.3342 33.6977 19.8591C34.157 19.384 34.4579 18.6001 34.6004 17.5073C34.7588 16.3988 34.8379 14.926 34.8379 13.0889V12.2813C34.8221 10.0166 34.6242 8.30629 34.2441 7.15022C33.864 5.97831 33.0009 5.39236 31.6548 5.39236H29.4218V20.5717Z" fill="white"/>
<path d="M52.8099 42.7825C50.6403 42.7825 48.8666 42.3233 47.4888 41.4047C46.1269 40.4862 45.1213 39.1243 44.472 37.3189C43.8227 35.5135 43.498 33.2806 43.498 30.62V11.4974C43.498 9.0902 43.8148 7.03144 44.4482 5.32109C45.0817 3.61074 46.0873 2.2963 47.4651 1.37778C48.8429 0.459261 50.6482 0 52.8812 0C54.5599 0 55.9772 0.261304 57.1333 0.783911C58.2894 1.30652 59.2237 2.06667 59.9364 3.06438C60.649 4.04625 61.1637 5.24983 61.4805 6.67512C61.813 8.08457 61.9793 9.69199 61.9793 11.4974V30.62C61.9793 33.2806 61.6626 35.5135 61.0291 37.3189C60.4115 39.1243 59.4296 40.4862 58.0835 41.4047C56.7374 42.3233 54.9795 42.7825 52.8099 42.7825ZM52.8099 37.2714C53.6018 37.2714 54.1956 37.0338 54.5915 36.5587C54.9875 36.0836 55.2488 35.3631 55.3755 34.3971C55.518 33.4152 55.5893 32.1799 55.5893 30.6913V11.2123C55.5893 9.39109 55.415 7.98955 55.0666 7.00769C54.7341 6.00998 54.0056 5.51113 52.8812 5.51113C51.7251 5.51113 50.9412 5.99415 50.5295 6.96018C50.1177 7.91037 49.9118 9.31983 49.9118 11.1885V30.6913C49.9118 32.2116 49.9752 33.4627 50.1019 34.4446C50.2444 35.4106 50.5215 36.1232 50.9333 36.5825C51.3609 37.0418 51.9864 37.2714 52.8099 37.2714Z" fill="white"/>
<path d="M2.47051 88.5249V46.7163H8.83681V83.1088H16.8897V88.5249H2.47051Z" fill="white"/>
<path d="M23.2532 88.5249V46.7163H29.6195V83.1088H37.6724V88.5249H23.2532Z" fill="white"/>
<path d="M52.35 89C50.1804 89 48.4067 88.5407 47.0289 87.6222C45.667 86.7037 44.6614 85.3417 44.0121 83.5364C43.3628 81.731 43.0381 79.4981 43.0381 76.8375V57.7148C43.0381 55.3077 43.3549 53.2489 43.9883 51.5386C44.6218 49.8282 45.6274 48.5138 47.0052 47.5953C48.383 46.6767 50.1883 46.2175 52.4213 46.2175C54.1 46.2175 55.5174 46.4788 56.6734 47.0014C57.8295 47.524 58.7639 48.2842 59.4765 49.2819C60.1891 50.2637 60.7038 51.4673 61.0206 52.8926C61.3531 54.3021 61.5194 55.9095 61.5194 57.7148V76.8375C61.5194 79.4981 61.2027 81.731 60.5692 83.5364C59.9516 85.3417 58.9697 86.7037 57.6236 87.6222C56.2775 88.5407 54.5196 89 52.35 89ZM52.35 83.4889C53.1419 83.4889 53.7357 83.2513 54.1317 82.7762C54.5276 82.3011 54.7889 81.5806 54.9156 80.6145C55.0581 79.6327 55.1294 78.3974 55.1294 76.9088V57.4298C55.1294 55.6086 54.9552 54.207 54.6068 53.2252C54.2742 52.2275 53.5457 51.7286 52.4213 51.7286C51.2652 51.7286 50.4813 52.2116 50.0696 53.1777C49.6578 54.1278 49.4519 55.5373 49.4519 57.406V76.9088C49.4519 78.4291 49.5153 79.6802 49.642 80.662C49.7845 81.6281 50.0617 82.3407 50.4734 82.8C50.901 83.2592 51.5265 83.4889 52.35 83.4889Z" fill="white"/>
</svg>
